<svg xmlns="http://www.w3.org/2000/svg" viewBox="0 0 96 96" role="img" aria-labelledby="title desc">
  <title id="title">Monogram Queen Al-Falah</title>
  <desc id="desc">Lambang geometris huruf Q, buku, dan bintang.</desc>
  <defs>
    <linearGradient id="g" x1="14" y1="10" x2="82" y2="88" gradientUnits="userSpaceOnUse">
      <stop stop-color="#0f775f"/>
      <stop offset="1" stop-color="#063c31"/>
    </linearGradient>
  </defs>
  <rect x="3" y="3" width="90" height="90" rx="28" fill="url(#g)"/>
  <path d="M27 54c5-4 12-6 21-6s16 2 21 6v17c-5-3-12-5-21-5s-16 2-21 5V54Z" fill="#fff" opacity=".95"/>
  <path d="M48 48v18" stroke="#d4a72c" stroke-width="3"/>
  <path d="M30 53c5-2 11-3 18-3s13 1 18 3" fill="none" stroke="#d4a72c" stroke-width="2"/>
  <path d="M48 20c-10 0-18 7-18 16s8 16 18 16c5 0 9-2 12-5l7 6 5-6-7-6c1-2 1-3 1-5 0-9-8-16-18-16Zm0 7c6 0 10 4 10 9s-4 9-10 9-10-4-10-9 4-9 10-9Z" fill="#fff"/>
  <path d="m74 19 2.1 4.3 4.7.7-3.4 3.3.8 4.7-4.2-2.2-4.2 2.2.8-4.7-3.4-3.3 4.7-.7L74 19Z" fill="#d4a72c"/>
</svg>

