<svg xmlns="http://www.w3.org/2000/svg" viewBox="0 0 760 620" role="img" aria-labelledby="title desc">
  <title id="title">Ilustrasi sekolah vokasi Queen Al-Falah</title>
  <desc id="desc">Gedung sekolah, siswa, buku, komputer, dan unsur islami dalam lanskap hijau.</desc>
  <defs>
    <linearGradient id="sky" x1="380" y1="0" x2="380" y2="620" gradientUnits="userSpaceOnUse">
      <stop stop-color="#e7f4ee"/>
      <stop offset="1" stop-color="#f8f3e8"/>
    </linearGradient>
    <filter id="shadow" x="-20%" y="-20%" width="140%" height="160%">
      <feDropShadow dx="0" dy="18" stdDeviation="18" flood-color="#063c31" flood-opacity=".16"/>
    </filter>
  </defs>
  <rect width="760" height="620" rx="48" fill="url(#sky)"/>
  <circle cx="625" cy="105" r="55" fill="#d4a72c" opacity=".22"/>
  <path d="M0 475c115-55 230-45 338 2 126 55 268 43 422-13v156H0V475Z" fill="#bcd8c8"/>
  <path d="M0 525c140-37 258-23 363 25 110 50 244 43 397-16v86H0v-95Z" fill="#0b5d4b" opacity=".86"/>
  <g filter="url(#shadow)">
    <path d="M143 281h474v236H143z" fill="#fff"/>
    <path d="m122 292 258-154 258 154-21 31-237-138-237 138-21-31Z" fill="#063c31"/>
    <path d="M311 174h138v74H311z" fill="#0b5d4b"/>
    <path d="M346 174c0-35 15-56 34-70 19 14 34 35 34 70h-68Z" fill="#0b5d4b"/>
    <path d="m380 83 6 13h14l-11 9 4 14-13-8-13 8 4-14-11-9h14l6-13Z" fill="#d4a72c"/>
    <path d="M174 335h412v182H174z" fill="#f8f3e8"/>
    <path d="M334 361h92v156h-92z" fill="#0b5d4b"/>
    <path d="M350 380h60v54h-60z" fill="#d6ece3"/>
    <g fill="#d6ece3">
      <path d="M197 359h77v62h-77zM486 359h77v62h-77zM197 440h77v51h-77zM486 440h77v51h-77z"/>
    </g>
    <g fill="none" stroke="#0b5d4b" stroke-width="5">
      <path d="M235 359v62M197 390h77M525 359v62M486 390h77M235 440v51M197 465h77M525 440v51M486 465h77"/>
    </g>
    <rect x="281" y="282" width="198" height="51" rx="12" fill="#d4a72c"/>
    <text x="380" y="314" text-anchor="middle" font-family="Arial, sans-serif" font-size="19" font-weight="700" fill="#063c31">SMK QUEEN AL-FALAH</text>
  </g>
  <g transform="translate(78 405)">
    <circle cx="36" cy="28" r="21" fill="#d9a37f"/>
    <path d="M17 25c2-28 38-30 41 0-7-6-15-9-22-9s-13 3-19 9Z" fill="#063c31"/>
    <path d="M10 116c0-47 9-70 26-70s27 23 27 70H10Z" fill="#fff"/>
    <path d="M11 66c16 5 35 5 51 0v50H11V66Z" fill="#0b5d4b"/>
    <rect x="45" y="72" width="58" height="42" rx="5" fill="#162521"/>
    <rect x="51" y="78" width="46" height="29" rx="2" fill="#d6ece3"/>
  </g>
  <g transform="translate(628 404)">
    <circle cx="34" cy="29" r="21" fill="#d9a37f"/>
    <path d="M12 31c2-34 42-36 45 0-8-10-16-15-23-15S20 21 12 31Z" fill="#f6f1e6"/>
    <path d="M9 116c0-47 9-70 25-70 17 0 27 23 27 70H9Z" fill="#f6f1e6"/>
    <path d="M10 67c15 4 35 4 50 0v49H10V67Z" fill="#d4a72c"/>
    <path d="M-28 74h58v40h-58z" fill="#fff" stroke="#0b5d4b" stroke-width="3"/>
    <path d="M1 74v40" stroke="#0b5d4b" stroke-width="2"/>
    <path d="M-22 81c8-3 15-3 23 0 8-3 15-3 23 0" fill="none" stroke="#d4a72c" stroke-width="2"/>
  </g>
</svg>

